<mxfile host="app.diagrams.net" modified="2023-04-22T15:29:09.127Z" agent="Mozilla/5.0 (Windows NT 10.0; Win64; x64) AppleWebKit/537.36 (KHTML, like Gecko) Chrome/112.0.0.0 Safari/537.36" etag="R0HJzFvJW7AeK0-vrb5c" version="21.2.1" type="device">
  <diagram name="Page-1" id="wdFTNs8ALIOl7Ynh_IPu">
    <mxGraphModel dx="2693" dy="750" grid="1" gridSize="10" guides="1" tooltips="1" connect="1" arrows="1" fold="1" page="1" pageScale="1" pageWidth="850" pageHeight="1100" math="0" shadow="0">
      <root>
        <mxCell id="0" />
        <mxCell id="1" parent="0" />
        <mxCell id="gOiIt8fCFuu5Qc88_Txi-9" style="edgeStyle=orthogonalEdgeStyle;rounded=0;orthogonalLoop=1;jettySize=auto;html=1;entryX=0.5;entryY=0;entryDx=0;entryDy=0;" edge="1" parent="1" source="gOiIt8fCFuu5Qc88_Txi-2" target="gOiIt8fCFuu5Qc88_Txi-3">
          <mxGeometry relative="1" as="geometry" />
        </mxCell>
        <mxCell id="gOiIt8fCFuu5Qc88_Txi-2" value="Quản lý sinh viên" style="rounded=0;whiteSpace=wrap;html=1;" vertex="1" parent="1">
          <mxGeometry x="330" y="150" width="120" height="60" as="geometry" />
        </mxCell>
        <mxCell id="gOiIt8fCFuu5Qc88_Txi-10" style="edgeStyle=orthogonalEdgeStyle;rounded=0;orthogonalLoop=1;jettySize=auto;html=1;entryX=0.5;entryY=0;entryDx=0;entryDy=0;" edge="1" parent="1" source="gOiIt8fCFuu5Qc88_Txi-3" target="gOiIt8fCFuu5Qc88_Txi-4">
          <mxGeometry relative="1" as="geometry">
            <mxPoint x="240" y="370" as="targetPoint" />
          </mxGeometry>
        </mxCell>
        <mxCell id="gOiIt8fCFuu5Qc88_Txi-11" style="edgeStyle=orthogonalEdgeStyle;rounded=0;orthogonalLoop=1;jettySize=auto;html=1;entryX=0.5;entryY=0;entryDx=0;entryDy=0;" edge="1" parent="1" source="gOiIt8fCFuu5Qc88_Txi-3" target="gOiIt8fCFuu5Qc88_Txi-5">
          <mxGeometry relative="1" as="geometry" />
        </mxCell>
        <mxCell id="gOiIt8fCFuu5Qc88_Txi-12" style="edgeStyle=orthogonalEdgeStyle;rounded=0;orthogonalLoop=1;jettySize=auto;html=1;" edge="1" parent="1" source="gOiIt8fCFuu5Qc88_Txi-3" target="gOiIt8fCFuu5Qc88_Txi-6">
          <mxGeometry relative="1" as="geometry" />
        </mxCell>
        <mxCell id="gOiIt8fCFuu5Qc88_Txi-13" style="edgeStyle=orthogonalEdgeStyle;rounded=0;orthogonalLoop=1;jettySize=auto;html=1;entryX=0.5;entryY=0;entryDx=0;entryDy=0;" edge="1" parent="1" source="gOiIt8fCFuu5Qc88_Txi-3" target="gOiIt8fCFuu5Qc88_Txi-7">
          <mxGeometry relative="1" as="geometry" />
        </mxCell>
        <mxCell id="gOiIt8fCFuu5Qc88_Txi-14" style="edgeStyle=orthogonalEdgeStyle;rounded=0;orthogonalLoop=1;jettySize=auto;html=1;" edge="1" parent="1" source="gOiIt8fCFuu5Qc88_Txi-3" target="gOiIt8fCFuu5Qc88_Txi-8">
          <mxGeometry relative="1" as="geometry" />
        </mxCell>
        <mxCell id="gOiIt8fCFuu5Qc88_Txi-71" style="edgeStyle=orthogonalEdgeStyle;rounded=0;orthogonalLoop=1;jettySize=auto;html=1;entryX=0.5;entryY=0;entryDx=0;entryDy=0;" edge="1" parent="1" source="gOiIt8fCFuu5Qc88_Txi-3" target="gOiIt8fCFuu5Qc88_Txi-69">
          <mxGeometry relative="1" as="geometry" />
        </mxCell>
        <mxCell id="gOiIt8fCFuu5Qc88_Txi-3" value="Menu" style="rounded=0;whiteSpace=wrap;html=1;" vertex="1" parent="1">
          <mxGeometry x="330" y="260" width="120" height="60" as="geometry" />
        </mxCell>
        <mxCell id="gOiIt8fCFuu5Qc88_Txi-42" style="edgeStyle=orthogonalEdgeStyle;rounded=0;orthogonalLoop=1;jettySize=auto;html=1;entryX=0;entryY=0.5;entryDx=0;entryDy=0;" edge="1" parent="1" source="gOiIt8fCFuu5Qc88_Txi-4" target="gOiIt8fCFuu5Qc88_Txi-19">
          <mxGeometry relative="1" as="geometry" />
        </mxCell>
        <mxCell id="gOiIt8fCFuu5Qc88_Txi-43" style="edgeStyle=orthogonalEdgeStyle;rounded=0;orthogonalLoop=1;jettySize=auto;html=1;entryX=0;entryY=0.5;entryDx=0;entryDy=0;" edge="1" parent="1" source="gOiIt8fCFuu5Qc88_Txi-4" target="gOiIt8fCFuu5Qc88_Txi-20">
          <mxGeometry relative="1" as="geometry" />
        </mxCell>
        <mxCell id="gOiIt8fCFuu5Qc88_Txi-44" style="edgeStyle=orthogonalEdgeStyle;rounded=0;orthogonalLoop=1;jettySize=auto;html=1;entryX=0;entryY=0.5;entryDx=0;entryDy=0;" edge="1" parent="1" source="gOiIt8fCFuu5Qc88_Txi-4" target="gOiIt8fCFuu5Qc88_Txi-21">
          <mxGeometry relative="1" as="geometry" />
        </mxCell>
        <mxCell id="gOiIt8fCFuu5Qc88_Txi-50" style="edgeStyle=orthogonalEdgeStyle;rounded=0;orthogonalLoop=1;jettySize=auto;html=1;entryX=0;entryY=0.5;entryDx=0;entryDy=0;" edge="1" parent="1" source="gOiIt8fCFuu5Qc88_Txi-4" target="gOiIt8fCFuu5Qc88_Txi-22">
          <mxGeometry relative="1" as="geometry" />
        </mxCell>
        <mxCell id="gOiIt8fCFuu5Qc88_Txi-67" style="edgeStyle=orthogonalEdgeStyle;rounded=0;orthogonalLoop=1;jettySize=auto;html=1;entryX=0;entryY=0.5;entryDx=0;entryDy=0;" edge="1" parent="1" source="gOiIt8fCFuu5Qc88_Txi-4" target="gOiIt8fCFuu5Qc88_Txi-64">
          <mxGeometry relative="1" as="geometry" />
        </mxCell>
        <mxCell id="gOiIt8fCFuu5Qc88_Txi-4" value="Môn học" style="rounded=0;whiteSpace=wrap;html=1;" vertex="1" parent="1">
          <mxGeometry x="10" y="380" width="120" height="60" as="geometry" />
        </mxCell>
        <mxCell id="gOiIt8fCFuu5Qc88_Txi-46" style="edgeStyle=orthogonalEdgeStyle;rounded=0;orthogonalLoop=1;jettySize=auto;html=1;entryX=0;entryY=0.5;entryDx=0;entryDy=0;" edge="1" parent="1" source="gOiIt8fCFuu5Qc88_Txi-5" target="gOiIt8fCFuu5Qc88_Txi-15">
          <mxGeometry relative="1" as="geometry" />
        </mxCell>
        <mxCell id="gOiIt8fCFuu5Qc88_Txi-47" style="edgeStyle=orthogonalEdgeStyle;rounded=0;orthogonalLoop=1;jettySize=auto;html=1;entryX=0;entryY=0.5;entryDx=0;entryDy=0;" edge="1" parent="1" source="gOiIt8fCFuu5Qc88_Txi-5" target="gOiIt8fCFuu5Qc88_Txi-16">
          <mxGeometry relative="1" as="geometry" />
        </mxCell>
        <mxCell id="gOiIt8fCFuu5Qc88_Txi-48" style="edgeStyle=orthogonalEdgeStyle;rounded=0;orthogonalLoop=1;jettySize=auto;html=1;entryX=0;entryY=0.5;entryDx=0;entryDy=0;" edge="1" parent="1" source="gOiIt8fCFuu5Qc88_Txi-5" target="gOiIt8fCFuu5Qc88_Txi-17">
          <mxGeometry relative="1" as="geometry" />
        </mxCell>
        <mxCell id="gOiIt8fCFuu5Qc88_Txi-49" style="edgeStyle=orthogonalEdgeStyle;rounded=0;orthogonalLoop=1;jettySize=auto;html=1;entryX=0;entryY=0.5;entryDx=0;entryDy=0;" edge="1" parent="1" source="gOiIt8fCFuu5Qc88_Txi-5" target="gOiIt8fCFuu5Qc88_Txi-18">
          <mxGeometry relative="1" as="geometry" />
        </mxCell>
        <mxCell id="gOiIt8fCFuu5Qc88_Txi-66" style="edgeStyle=orthogonalEdgeStyle;rounded=0;orthogonalLoop=1;jettySize=auto;html=1;entryX=0;entryY=0.5;entryDx=0;entryDy=0;" edge="1" parent="1" source="gOiIt8fCFuu5Qc88_Txi-5" target="gOiIt8fCFuu5Qc88_Txi-63">
          <mxGeometry relative="1" as="geometry" />
        </mxCell>
        <mxCell id="gOiIt8fCFuu5Qc88_Txi-5" value="Lớp" style="rounded=0;whiteSpace=wrap;html=1;" vertex="1" parent="1">
          <mxGeometry x="-230" y="380" width="120" height="60" as="geometry" />
        </mxCell>
        <mxCell id="gOiIt8fCFuu5Qc88_Txi-51" style="edgeStyle=orthogonalEdgeStyle;rounded=0;orthogonalLoop=1;jettySize=auto;html=1;entryX=0;entryY=0.5;entryDx=0;entryDy=0;" edge="1" parent="1" source="gOiIt8fCFuu5Qc88_Txi-6" target="gOiIt8fCFuu5Qc88_Txi-23">
          <mxGeometry relative="1" as="geometry" />
        </mxCell>
        <mxCell id="gOiIt8fCFuu5Qc88_Txi-52" style="edgeStyle=orthogonalEdgeStyle;rounded=0;orthogonalLoop=1;jettySize=auto;html=1;entryX=0;entryY=0.5;entryDx=0;entryDy=0;" edge="1" parent="1" source="gOiIt8fCFuu5Qc88_Txi-6" target="gOiIt8fCFuu5Qc88_Txi-24">
          <mxGeometry relative="1" as="geometry" />
        </mxCell>
        <mxCell id="gOiIt8fCFuu5Qc88_Txi-53" style="edgeStyle=orthogonalEdgeStyle;rounded=0;orthogonalLoop=1;jettySize=auto;html=1;entryX=0;entryY=0.5;entryDx=0;entryDy=0;" edge="1" parent="1" source="gOiIt8fCFuu5Qc88_Txi-6" target="gOiIt8fCFuu5Qc88_Txi-25">
          <mxGeometry relative="1" as="geometry" />
        </mxCell>
        <mxCell id="gOiIt8fCFuu5Qc88_Txi-54" style="edgeStyle=orthogonalEdgeStyle;rounded=0;orthogonalLoop=1;jettySize=auto;html=1;entryX=0;entryY=0.5;entryDx=0;entryDy=0;" edge="1" parent="1" source="gOiIt8fCFuu5Qc88_Txi-6" target="gOiIt8fCFuu5Qc88_Txi-26">
          <mxGeometry relative="1" as="geometry" />
        </mxCell>
        <mxCell id="gOiIt8fCFuu5Qc88_Txi-68" style="edgeStyle=orthogonalEdgeStyle;rounded=0;orthogonalLoop=1;jettySize=auto;html=1;entryX=0;entryY=0.5;entryDx=0;entryDy=0;" edge="1" parent="1" source="gOiIt8fCFuu5Qc88_Txi-6" target="gOiIt8fCFuu5Qc88_Txi-65">
          <mxGeometry relative="1" as="geometry" />
        </mxCell>
        <mxCell id="gOiIt8fCFuu5Qc88_Txi-6" value="Sinh viên" style="rounded=0;whiteSpace=wrap;html=1;" vertex="1" parent="1">
          <mxGeometry x="540" y="380" width="120" height="60" as="geometry" />
        </mxCell>
        <mxCell id="gOiIt8fCFuu5Qc88_Txi-55" style="edgeStyle=orthogonalEdgeStyle;rounded=0;orthogonalLoop=1;jettySize=auto;html=1;entryX=0;entryY=0.5;entryDx=0;entryDy=0;" edge="1" parent="1" source="gOiIt8fCFuu5Qc88_Txi-7" target="gOiIt8fCFuu5Qc88_Txi-27">
          <mxGeometry relative="1" as="geometry" />
        </mxCell>
        <mxCell id="gOiIt8fCFuu5Qc88_Txi-56" style="edgeStyle=orthogonalEdgeStyle;rounded=0;orthogonalLoop=1;jettySize=auto;html=1;entryX=0;entryY=0.5;entryDx=0;entryDy=0;" edge="1" parent="1" source="gOiIt8fCFuu5Qc88_Txi-7" target="gOiIt8fCFuu5Qc88_Txi-28">
          <mxGeometry relative="1" as="geometry" />
        </mxCell>
        <mxCell id="gOiIt8fCFuu5Qc88_Txi-57" style="edgeStyle=orthogonalEdgeStyle;rounded=0;orthogonalLoop=1;jettySize=auto;html=1;entryX=0;entryY=0.5;entryDx=0;entryDy=0;" edge="1" parent="1" source="gOiIt8fCFuu5Qc88_Txi-7" target="gOiIt8fCFuu5Qc88_Txi-29">
          <mxGeometry relative="1" as="geometry" />
        </mxCell>
        <mxCell id="gOiIt8fCFuu5Qc88_Txi-58" style="edgeStyle=orthogonalEdgeStyle;rounded=0;orthogonalLoop=1;jettySize=auto;html=1;entryX=0;entryY=0.5;entryDx=0;entryDy=0;" edge="1" parent="1" source="gOiIt8fCFuu5Qc88_Txi-7" target="gOiIt8fCFuu5Qc88_Txi-30">
          <mxGeometry relative="1" as="geometry" />
        </mxCell>
        <mxCell id="gOiIt8fCFuu5Qc88_Txi-7" value="Đăng Ký Môn" style="rounded=0;whiteSpace=wrap;html=1;" vertex="1" parent="1">
          <mxGeometry x="820" y="380" width="120" height="60" as="geometry" />
        </mxCell>
        <mxCell id="gOiIt8fCFuu5Qc88_Txi-59" style="edgeStyle=orthogonalEdgeStyle;rounded=0;orthogonalLoop=1;jettySize=auto;html=1;entryX=0;entryY=0.5;entryDx=0;entryDy=0;" edge="1" parent="1" source="gOiIt8fCFuu5Qc88_Txi-8" target="gOiIt8fCFuu5Qc88_Txi-31">
          <mxGeometry relative="1" as="geometry" />
        </mxCell>
        <mxCell id="gOiIt8fCFuu5Qc88_Txi-60" style="edgeStyle=orthogonalEdgeStyle;rounded=0;orthogonalLoop=1;jettySize=auto;html=1;entryX=0;entryY=0.5;entryDx=0;entryDy=0;" edge="1" parent="1" source="gOiIt8fCFuu5Qc88_Txi-8" target="gOiIt8fCFuu5Qc88_Txi-32">
          <mxGeometry relative="1" as="geometry" />
        </mxCell>
        <mxCell id="gOiIt8fCFuu5Qc88_Txi-61" style="edgeStyle=orthogonalEdgeStyle;rounded=0;orthogonalLoop=1;jettySize=auto;html=1;entryX=0;entryY=0.5;entryDx=0;entryDy=0;" edge="1" parent="1" source="gOiIt8fCFuu5Qc88_Txi-8" target="gOiIt8fCFuu5Qc88_Txi-33">
          <mxGeometry relative="1" as="geometry" />
        </mxCell>
        <mxCell id="gOiIt8fCFuu5Qc88_Txi-62" style="edgeStyle=orthogonalEdgeStyle;rounded=0;orthogonalLoop=1;jettySize=auto;html=1;entryX=0;entryY=0.5;entryDx=0;entryDy=0;" edge="1" parent="1" source="gOiIt8fCFuu5Qc88_Txi-8" target="gOiIt8fCFuu5Qc88_Txi-34">
          <mxGeometry relative="1" as="geometry" />
        </mxCell>
        <mxCell id="gOiIt8fCFuu5Qc88_Txi-8" value="Điểm số" style="rounded=0;whiteSpace=wrap;html=1;" vertex="1" parent="1">
          <mxGeometry x="1080" y="380" width="120" height="60" as="geometry" />
        </mxCell>
        <mxCell id="gOiIt8fCFuu5Qc88_Txi-15" value="Thêm" style="rounded=0;whiteSpace=wrap;html=1;" vertex="1" parent="1">
          <mxGeometry x="-150" y="480" width="120" height="60" as="geometry" />
        </mxCell>
        <mxCell id="gOiIt8fCFuu5Qc88_Txi-16" value="Xóa" style="rounded=0;whiteSpace=wrap;html=1;" vertex="1" parent="1">
          <mxGeometry x="-150" y="560" width="120" height="60" as="geometry" />
        </mxCell>
        <mxCell id="gOiIt8fCFuu5Qc88_Txi-17" value="Sửa" style="rounded=0;whiteSpace=wrap;html=1;" vertex="1" parent="1">
          <mxGeometry x="-150" y="640" width="120" height="60" as="geometry" />
        </mxCell>
        <mxCell id="gOiIt8fCFuu5Qc88_Txi-18" value="In danh sách" style="rounded=0;whiteSpace=wrap;html=1;" vertex="1" parent="1">
          <mxGeometry x="-150" y="720" width="120" height="60" as="geometry" />
        </mxCell>
        <mxCell id="gOiIt8fCFuu5Qc88_Txi-19" value="Thêm" style="rounded=0;whiteSpace=wrap;html=1;" vertex="1" parent="1">
          <mxGeometry x="90" y="480" width="120" height="60" as="geometry" />
        </mxCell>
        <mxCell id="gOiIt8fCFuu5Qc88_Txi-20" value="Xóa" style="rounded=0;whiteSpace=wrap;html=1;" vertex="1" parent="1">
          <mxGeometry x="90" y="560" width="120" height="60" as="geometry" />
        </mxCell>
        <mxCell id="gOiIt8fCFuu5Qc88_Txi-21" value="Sửa" style="rounded=0;whiteSpace=wrap;html=1;" vertex="1" parent="1">
          <mxGeometry x="90" y="640" width="120" height="60" as="geometry" />
        </mxCell>
        <mxCell id="gOiIt8fCFuu5Qc88_Txi-22" value="In danh sách" style="rounded=0;whiteSpace=wrap;html=1;" vertex="1" parent="1">
          <mxGeometry x="90" y="720" width="120" height="60" as="geometry" />
        </mxCell>
        <mxCell id="gOiIt8fCFuu5Qc88_Txi-23" value="Thêm" style="rounded=0;whiteSpace=wrap;html=1;" vertex="1" parent="1">
          <mxGeometry x="620" y="470" width="120" height="60" as="geometry" />
        </mxCell>
        <mxCell id="gOiIt8fCFuu5Qc88_Txi-24" value="Xóa" style="rounded=0;whiteSpace=wrap;html=1;" vertex="1" parent="1">
          <mxGeometry x="620" y="550" width="120" height="60" as="geometry" />
        </mxCell>
        <mxCell id="gOiIt8fCFuu5Qc88_Txi-25" value="Sửa" style="rounded=0;whiteSpace=wrap;html=1;" vertex="1" parent="1">
          <mxGeometry x="620" y="630" width="120" height="60" as="geometry" />
        </mxCell>
        <mxCell id="gOiIt8fCFuu5Qc88_Txi-26" value="In danh sách" style="rounded=0;whiteSpace=wrap;html=1;" vertex="1" parent="1">
          <mxGeometry x="620" y="710" width="120" height="60" as="geometry" />
        </mxCell>
        <mxCell id="gOiIt8fCFuu5Qc88_Txi-27" value="Thêm" style="rounded=0;whiteSpace=wrap;html=1;" vertex="1" parent="1">
          <mxGeometry x="900" y="470" width="120" height="60" as="geometry" />
        </mxCell>
        <mxCell id="gOiIt8fCFuu5Qc88_Txi-28" value="Xóa" style="rounded=0;whiteSpace=wrap;html=1;" vertex="1" parent="1">
          <mxGeometry x="900" y="550" width="120" height="60" as="geometry" />
        </mxCell>
        <mxCell id="gOiIt8fCFuu5Qc88_Txi-29" value="Sửa" style="rounded=0;whiteSpace=wrap;html=1;" vertex="1" parent="1">
          <mxGeometry x="900" y="630" width="120" height="60" as="geometry" />
        </mxCell>
        <mxCell id="gOiIt8fCFuu5Qc88_Txi-30" value="In danh sách" style="rounded=0;whiteSpace=wrap;html=1;" vertex="1" parent="1">
          <mxGeometry x="900" y="710" width="120" height="60" as="geometry" />
        </mxCell>
        <mxCell id="gOiIt8fCFuu5Qc88_Txi-31" value="Thêm" style="rounded=0;whiteSpace=wrap;html=1;" vertex="1" parent="1">
          <mxGeometry x="1160" y="470" width="120" height="60" as="geometry" />
        </mxCell>
        <mxCell id="gOiIt8fCFuu5Qc88_Txi-32" value="Xóa" style="rounded=0;whiteSpace=wrap;html=1;" vertex="1" parent="1">
          <mxGeometry x="1160" y="550" width="120" height="60" as="geometry" />
        </mxCell>
        <mxCell id="gOiIt8fCFuu5Qc88_Txi-33" value="Sửa" style="rounded=0;whiteSpace=wrap;html=1;" vertex="1" parent="1">
          <mxGeometry x="1160" y="630" width="120" height="60" as="geometry" />
        </mxCell>
        <mxCell id="gOiIt8fCFuu5Qc88_Txi-34" value="In danh sách" style="rounded=0;whiteSpace=wrap;html=1;" vertex="1" parent="1">
          <mxGeometry x="1160" y="710" width="120" height="60" as="geometry" />
        </mxCell>
        <mxCell id="gOiIt8fCFuu5Qc88_Txi-63" value="Tìm kiếm" style="rounded=0;whiteSpace=wrap;html=1;" vertex="1" parent="1">
          <mxGeometry x="-150" y="800" width="120" height="60" as="geometry" />
        </mxCell>
        <mxCell id="gOiIt8fCFuu5Qc88_Txi-64" value="Tìm kiếm" style="rounded=0;whiteSpace=wrap;html=1;" vertex="1" parent="1">
          <mxGeometry x="90" y="800" width="120" height="60" as="geometry" />
        </mxCell>
        <mxCell id="gOiIt8fCFuu5Qc88_Txi-65" value="Tìm kiếm" style="rounded=0;whiteSpace=wrap;html=1;" vertex="1" parent="1">
          <mxGeometry x="620" y="790" width="120" height="60" as="geometry" />
        </mxCell>
        <mxCell id="gOiIt8fCFuu5Qc88_Txi-74" style="edgeStyle=orthogonalEdgeStyle;rounded=0;orthogonalLoop=1;jettySize=auto;html=1;entryX=0;entryY=0;entryDx=0;entryDy=0;" edge="1" parent="1" source="gOiIt8fCFuu5Qc88_Txi-69" target="gOiIt8fCFuu5Qc88_Txi-72">
          <mxGeometry relative="1" as="geometry" />
        </mxCell>
        <mxCell id="gOiIt8fCFuu5Qc88_Txi-75" style="edgeStyle=orthogonalEdgeStyle;rounded=0;orthogonalLoop=1;jettySize=auto;html=1;entryX=1;entryY=0;entryDx=0;entryDy=0;" edge="1" parent="1" source="gOiIt8fCFuu5Qc88_Txi-69" target="gOiIt8fCFuu5Qc88_Txi-73">
          <mxGeometry relative="1" as="geometry" />
        </mxCell>
        <mxCell id="gOiIt8fCFuu5Qc88_Txi-69" value="Báo cáo" style="rounded=0;whiteSpace=wrap;html=1;" vertex="1" parent="1">
          <mxGeometry x="330" y="380" width="120" height="60" as="geometry" />
        </mxCell>
        <mxCell id="gOiIt8fCFuu5Qc88_Txi-72" value="Thống kê" style="rounded=0;whiteSpace=wrap;html=1;" vertex="1" parent="1">
          <mxGeometry x="250" y="480" width="120" height="60" as="geometry" />
        </mxCell>
        <mxCell id="gOiIt8fCFuu5Qc88_Txi-73" value="Matlplotlib" style="rounded=0;whiteSpace=wrap;html=1;" vertex="1" parent="1">
          <mxGeometry x="420" y="480" width="120" height="60" as="geometry" />
        </mxCell>
      </root>
    </mxGraphModel>
  </diagram>
</mxfile>
